<?xml version="1.0" encoding="UTF-8"?>
<svg version="1.1" xmlns="http://www.w3.org/2000/svg" width="50" height="50">
<path d="M0 0 C1.28777344 0.59554687 1.28777344 0.59554687 2.6015625 1.203125 C20.29954336 10.07761684 33.440696 25.32893377 40 44 C42.54365946 52.15132246 43.52256907 59.79097178 43.4375 68.3125 C43.42847656 69.40481934 43.41945313 70.49713867 43.41015625 71.62255859 C42.96919343 92.28962847 34.37681235 110.08950397 19.51171875 124.39453125 C9.54355517 133.06314165 -4.41167499 142 -18 142 C-18.19745976 160.0706055 -18.29191627 178.13683609 -17.3125 196.1875 C-17.25916504 197.43668213 -17.20583008 198.68586426 -17.15087891 199.97290039 C-16.51316891 210.08703626 -13.67467262 218.4667148 -6.078125 225.46875 C3.73763567 232.70141576 14.96861407 234.33126732 26.81640625 234.125 C27.8311351 234.11742676 28.84586395 234.10985352 29.89134216 234.10205078 C34.18761991 234.0697357 38.48349992 234.0137567 42.77954102 233.95898438 C65.58502245 233.69378407 90.30898107 233.60328065 108.25 250.12109375 C123.46458791 266.45639908 128.20457681 284.917388 128.09765625 306.71875 C128.09553383 308.366474 128.09553383 308.366474 128.09336853 310.04748535 C128.08780257 313.53168543 128.07525639 317.01581958 128.0625 320.5 C128.0574806 322.8723949 128.05291846 325.24479082 128.04882812 327.6171875 C128.0378443 333.41148056 128.0211403 339.20573557 128 345 C119.50942797 348.263153 119.50942797 348.263153 115.31640625 349.203125 C114.53458984 349.3784375 113.75277344 349.55375 112.94726562 349.734375 C111.76680664 349.98960937 111.76680664 349.98960937 110.5625 350.25 C109.74845703 350.435625 108.93441406 350.62125 108.09570312 350.8125 C106.07403121 351.25763877 104.03771727 351.6352889 102 352 C101 351 101 351 100.89320374 349.15168762 C100.90145676 348.34342026 100.90970978 347.53515289 100.91821289 346.70239258 C100.9247438 345.7866597 100.93127472 344.87092682 100.93800354 343.92744446 C100.94943893 342.9265831 100.96087433 341.92572174 100.97265625 340.89453125 C100.98532447 338.7740903 100.99768375 336.65364749 101.00976562 334.53320312 C101.0343799 331.19175396 101.06211624 327.85040222 101.09594727 324.5090332 C102.14722119 296.03178547 102.14722119 296.03178547 89.62890625 271.45703125 C75.9649233 259.23481149 55.14708664 261.5557353 38 261.5 C2.27066832 261.38386452 2.27066832 261.38386452 -13.7421875 253.98828125 C-15.89458931 252.8663383 -15.89458931 252.8663383 -18 253 C-18.33 275.77 -18.66 298.54 -19 322 C-27.25 323.98 -35.5 325.96 -44 328 C-45 327 -45 327 -45.12304783 324.95601559 C-45.12212604 324.04989308 -45.12120424 323.14377058 -45.12025452 322.21018982 C-45.12231651 320.6557164 -45.12231651 320.6557164 -45.12442017 319.06983948 C-45.12082489 317.92329391 -45.11722961 316.77674835 -45.11352539 315.59545898 C-45.11367142 314.39562378 -45.11381744 313.19578857 -45.1139679 311.95959473 C-45.11338894 308.66014809 -45.10835978 305.36076336 -45.10139394 302.0613277 C-45.09515973 298.61665703 -45.09455655 295.17198562 -45.09336853 291.72731018 C-45.09025541 285.2001727 -45.08204229 278.67305189 -45.07201904 272.14592177 C-45.0608573 264.71677984 -45.0553473 257.28763714 -45.05032361 249.85848892 C-45.03985966 234.57231628 -45.0222606 219.28616028 -45 204 C-45.92270691 204.34167709 -46.84541382 204.68335419 -47.79608154 205.03538513 C-54.00696428 207.30119324 -60.0530014 209.49643097 -66.578125 210.66015625 C-68.47304688 211.0149707 -68.47304688 211.0149707 -70.40625 211.37695312 C-71.6746875 211.60318359 -72.943125 211.82941406 -74.25 212.0625 C-91.86788081 214.88963603 -91.86788081 214.88963603 -106 225 C-112.92338918 235.51571376 -115.44813531 245.01378364 -115.43237305 257.49633789 C-115.44766052 259.32710373 -115.44766052 259.32710373 -115.46325684 261.19485474 C-115.4881341 264.51459271 -115.50008661 267.83388946 -115.50611091 271.15368199 C-115.51554162 274.63307582 -115.54174848 278.11234405 -115.56611633 281.59165955 C-115.60965662 288.16807983 -115.63827989 294.74447555 -115.66143972 301.32099575 C-115.68855859 308.81327496 -115.73246573 316.30542703 -115.77772844 323.79761517 C-115.87039589 339.19834459 -115.94215818 354.599098 -116 370 C-117.44591448 370.48611276 -118.89218556 370.9711649 -120.33860779 371.45576477 C-121.14396186 371.72599111 -121.94931593 371.99621744 -122.77907467 372.27463245 C-125.03502609 373.01143973 -127.28405395 373.63966586 -129.59765625 374.16796875 C-130.33564453 374.33876953 -131.07363281 374.50957031 -131.83398438 374.68554688 C-132.93709961 374.93401367 -132.93709961 374.93401367 -134.0625 375.1875 C-134.83271484 375.36474609 -135.60292969 375.54199219 -136.39648438 375.72460938 C-138.26342669 376.15365823 -140.13158556 376.57740799 -142 377 C-143.20838042 372.26809504 -143.14079616 367.6680361 -143.12939453 362.82055664 C-143.13202301 361.44333939 -143.13202301 361.44333939 -143.13470459 360.03829956 C-143.13911065 356.99556595 -143.1361834 353.95289049 -143.1328125 350.91015625 C-143.13348733 348.76956674 -143.13445885 346.62897731 -143.13571167 344.48838806 C-143.13718814 339.9833809 -143.13504098 335.47839353 -143.13037109 330.97338867 C-143.12475872 325.29086309 -143.12799734 319.60838518 -143.13380527 313.92586136 C-143.16864676 273.96122496 -143.16864676 273.96122496 -142.56640625 255.33203125 C-142.52923492 254.16736832 -142.4920636 253.00270538 -142.45376587 251.80274963 C-141.90566658 237.51659925 -138.34624973 225.16665387 -133 212 C-157.12750978 212.05123804 -157.12750978 212.05123804 -177.6875 223.25 C-187.11816822 233.16700313 -187.33263181 245.53225244 -187.625 258.5 C-187.66325297 259.90887638 -187.70230875 261.3177312 -187.7421875 262.7265625 C-187.83600533 266.15091327 -187.92170216 269.57526508 -188 273 C-196.62927587 275.20549731 -205.23339098 277.39840797 -214 279 C-219.58571313 262.24286062 -215.94523289 234.67434726 -208.4453125 218.57421875 C-206.05449663 214.31598184 -203.24414364 210.63908287 -200 207 C-199.48953125 206.39671875 -198.9790625 205.7934375 -198.453125 205.171875 C-185.36128538 190.78381364 -166.57872621 186.58263761 -148 185 C-143.37653106 184.8197275 -138.76909116 184.81233809 -134.14291 184.88023567 C-131.97863154 184.911246 -129.81463588 184.9274416 -127.650177 184.94029236 C-121.50989374 184.97937744 -115.36996177 185.04492476 -109.22998047 185.11645508 C-105.43789427 185.15963756 -101.64592017 185.18743263 -97.85364151 185.20675468 C-96.43053729 185.2171641 -95.00746081 185.2333735 -93.58449936 185.25605965 C-80.72040206 185.46108266 -66.97446515 185.10020924 -57 176 C-47.7643491 166.39639488 -45.41790972 155.94775452 -44 143 C-44.98097656 142.8040625 -45.96195313 142.608125 -46.97265625 142.40625 C-63.35105489 138.88460781 -75.3315452 131.92698777 -87 120 C-87.73863281 119.29359375 -88.47726563 118.5871875 -89.23828125 117.859375 C-101.97146383 104.90367078 -107.29536799 86.24862948 -107.5 68.5 C-107.26539238 48.1514549 -100.36633452 30.18892857 -85.86328125 15.765625 C-84.91839844 14.85296875 -83.97351563 13.9403125 -83 13 C-82.00033203 11.97132812 -82.00033203 11.97132812 -80.98046875 10.921875 C-60.03559312 -9.33852757 -25.52251406 -12.0591814 0 0 Z M-59.3125 45.3125 C-66.56662472 54.3801559 -68.0157161 64.69720574 -67 76 C-64.55862149 85.54875612 -59.45041844 93.68357081 -50.95703125 98.8515625 C-41.42327716 103.75198177 -32.44117669 106.00166755 -21.76171875 103.12890625 C-10.34206983 98.70324816 -2.68202437 91.2407212 2.3125 80.0625 C4.80936566 68.94009844 4.00217807 59.517478 -1.46875 49.38671875 C-6.95946189 40.82849179 -14.66909684 35.77069507 -24.5390625 33.38671875 C-37.91413739 31.28492127 -50.06843838 35.32706001 -59.3125 45.3125 Z " fill="#D8D8D8" transform="translate(298,41)"/>
<path d="M0 0 C0.33 0 0.66 0 1 0 C1.02505615 0.64026123 1.0501123 1.28052246 1.07592773 1.94018555 C1.1923546 4.85613726 1.31486867 7.7718029 1.4375 10.6875 C1.47681641 11.69490234 1.51613281 12.70230469 1.55664062 13.74023438 C1.59853516 14.71669922 1.64042969 15.69316406 1.68359375 16.69921875 C1.73858032 18.04246216 1.73858032 18.04246216 1.79467773 19.4128418 C2.06539301 22.82398305 2.46174999 25.92349998 4 29 C3.01 29 2.02 29 1 29 C-0.07917226 25.76248322 -0.11425601 23.42248229 -0.09765625 20.01953125 C-0.09443359 18.85615234 -0.09121094 17.69277344 -0.08789062 16.49414062 C-0.07951172 15.27919922 -0.07113281 14.06425781 -0.0625 12.8125 C-0.05798828 11.58595703 -0.05347656 10.35941406 -0.04882812 9.09570312 C-0.03703065 6.06375332 -0.02056921 3.03190094 0 0 Z " fill="#CECECE" transform="translate(83,291)"/>
</svg>
